<?xml version="1.0" encoding="UTF-8" standalone="no"?>
<svg
   xmlns:dc="http://purl.org/dc/elements/1.1/"
   xmlns:cc="http://creativecommons.org/ns#"
   xmlns:rdf="http://www.w3.org/1999/02/22-rdf-syntax-ns#"
   xmlns:svg="http://www.w3.org/2000/svg"
   xmlns="http://www.w3.org/2000/svg"
   height="80.299271"
   width="77.712944"
   version="1.1"
   viewBox="0 0 77.712946 80.299271"
   id="svg4141">
  <defs
     id="defs12">
    <filter
       id="filter824"
       style="color-interpolation-filters:sRGB;">
      <feColorMatrix
         result="fbSourceGraphic"
         id="feColorMatrix822"
         values="0.21 0.72 0.072 0 0 0.21 0.72 0.072 0 0 0.21 0.72 0.072 0 0 0 0 0 1 0 " />
      <feColorMatrix
         id="feColorMatrix838"
         values="0 0 0 -1 0 0 0 0 -1 0 0 0 0 -1 0 0 0 0 1 0"
         in="fbSourceGraphic"
         result="fbSourceGraphicAlpha" />
      <feColorMatrix
         in="fbSourceGraphic"
         values="0.21 0.72 0.072 0 0 0.21 0.72 0.072 0 0 0.21 0.72 0.072 0 0 0 0 0 1 0 "
         id="feColorMatrix840" />
    </filter>
    <filter
       id="filter828"
       style="color-interpolation-filters:sRGB;">
      <feColorMatrix
         result="fbSourceGraphic"
         id="feColorMatrix826"
         values="0.21 0.72 0.072 0 0 0.21 0.72 0.072 0 0 0.21 0.72 0.072 0 0 0 0 0 1 0 " />
      <feColorMatrix
         id="feColorMatrix842"
         values="0 0 0 -1 0 0 0 0 -1 0 0 0 0 -1 0 0 0 0 1 0"
         in="fbSourceGraphic"
         result="fbSourceGraphicAlpha" />
      <feColorMatrix
         in="fbSourceGraphic"
         values="0.21 0.72 0.072 0 0 0.21 0.72 0.072 0 0 0.21 0.72 0.072 0 0 0 0 0 1 0 "
         id="feColorMatrix844" />
    </filter>
    <filter
       id="filter832"
       style="color-interpolation-filters:sRGB;">
      <feColorMatrix
         result="fbSourceGraphic"
         id="feColorMatrix830"
         values="0.21 0.72 0.072 0 0 0.21 0.72 0.072 0 0 0.21 0.72 0.072 0 0 0 0 0 1 0 " />
      <feColorMatrix
         id="feColorMatrix846"
         values="0 0 0 -1 0 0 0 0 -1 0 0 0 0 -1 0 0 0 0 1 0"
         in="fbSourceGraphic"
         result="fbSourceGraphicAlpha" />
      <feColorMatrix
         in="fbSourceGraphic"
         values="0.21 0.72 0.072 0 0 0.21 0.72 0.072 0 0 0.21 0.72 0.072 0 0 0 0 0 1 0 "
         id="feColorMatrix848" />
    </filter>
    <filter
       id="filter836"
       style="color-interpolation-filters:sRGB;">
      <feColorMatrix
         result="fbSourceGraphic"
         id="feColorMatrix834"
         values="0.21 0.72 0.072 0 0 0.21 0.72 0.072 0 0 0.21 0.72 0.072 0 0 0 0 0 1 0 " />
      <feColorMatrix
         id="feColorMatrix850"
         values="0 0 0 -1 0 0 0 0 -1 0 0 0 0 -1 0 0 0 0 1 0"
         in="fbSourceGraphic"
         result="fbSourceGraphicAlpha" />
      <feColorMatrix
         in="fbSourceGraphic"
         values="0.21 0.72 0.072 0 0 0.21 0.72 0.072 0 0 0.21 0.72 0.072 0 0 0 0 0 1 0 "
         id="feColorMatrix852" />
    </filter>
  </defs>
  <path
     d="m 22.569269,60.794426 c 0,0 -11.292,3.032 -20.0360004,7.5547 -1.1907,0.61588 -1.94770002,0.7162 -2.50460002,1.6423 0.017913,2.569 -0.09867,10.446 0.041001,10.306 l 77.60000042,-0.082 c 0.0032,-2.4224 0.09574,-10.391 0,-11.578 -0.629,-0.901 -0.739,-0.945 -1.56,-1.437 -0.821,-0.493 -24.635,-7.719 -24.635,-7.719 z"
     style="opacity:0.77569999;fill:#87aade;filter:url(#filter824)"
     id="path3156" />
  <path
     d="m 55.106269,39.140426 c 0.03746,-0.10238 0.08165,-0.13876 0.11311,-0.23407 0.05256,-0.16385 0.07201,-0.33656 0.10184,-0.50887 0.04092,-0.23559 0.08729,-0.47179 0.1273,-0.71242 0.04237,-0.25347 0.07492,-0.51845 0.1273,-0.76332 0.05237,-0.24485 0.12021,-0.46991 0.20355,-0.68698 0.11984,-0.31348 0.21984,-0.59509 0.30534,-0.86509 0.13712,-0.43312 0.26653,-0.9528 0.35622,-1.5012 0.06747,-0.40586 0.12839,-0.83897 0.05092,-1.2722 -0.04346,-0.26984 -0.06583,-0.5056 -0.31699,-0.64777 -0.09347,-0.04819 -0.20668,-0.07602 -0.30532,-0.07638 -0.1644,-7.64e-4 -0.31461,0.04237 -0.45798,0.10184 -0.18302,0.0742 -0.36086,0.19748 -0.50889,0.30532 -0.12512,0.09111 -0.31306,0.27644 -0.44527,0.34858 l -0.35875,0.04819 c 0.02982,-0.08311 -0.03601,-0.24672 -0.01455,-0.34604 0.28413,-1.3692 0.78691,-6.0107 0.76419,-8.283 -0.05201,-5.1799 1.4992,-7.2396 -2.245,-11.765 -0.94132,-1.1378 -2.3735,-2.4720996 -3.6028,-3.3203996 0.64731,0.16894 1.1505,0.24421 1.8777,0.60302 -1.5993,-1.2922 -3.0188,-1.9974 -4.2186,-2.6156 0.57745,0.08911 1.3146,0.276 1.9159,0.37149 -3.8775,-1.9167 -6.5193,-2.1418 -9.0554,-2.1245 l -0.6412,0.06874 c -1.1158,0.0073 -1.5715,0.06729 -2.3713,0.23663 -2.5001,-0.11184 -6.0106,-0.42143 -9.5439,1.2925 0.50003,-0.02801 0.92372,-0.04692 1.3231,-0.05092 -1.5824,0.73752 -3.3445,1.6893 -5.3203,3.8266996 0.44713,-0.24532 0.83906,-0.45733 1.2213,-0.6360796 -1.5089,1.4250996 -3.1866,3.6813996 -3.9947,5.7451996 -0.88605,2.263 -0.69118,12.238 -0.34605,13.969 0.31836,1.5966 0.01273,2.6329 -0.02146,2.7715 -0.01273,-0.0073 -0.01273,-0.01964 -0.02546,-0.02546 -0.22783,-0.10948 -0.58274,-0.23314 -0.85687,-0.11039 -0.27202,0.14403 -0.37068,0.39857 -0.42402,0.66956 -0.09693,0.44773 0.01273,0.87002 0.10184,1.272 0.14221,0.67077 0.31139,1.3239 0.46635,1.8321 0.05656,0.18522 0.12712,0.37124 0.19518,0.58521 0.06747,0.21079 0.12803,0.43587 0.16112,0.67845 0.03328,0.24254 0.0471,0.51711 0.06783,0.77185 0.01873,0.23465 0.01273,0.44607 0.03383,0.67843 0.01455,0.1704 0.01818,0.34312 0.05928,0.50889 0.0451,0.17349 0.11439,0.31739 0.20211,0.45478 0.0073,0.01091 0.01891,0.04055 0.02546,0.05092 0.01818,0.14112 0.16658,0.33991 0.16912,0.64782 0.0018,0.23854 0.08475,0.52032 0.05983,0.79656 -0.02437,0.27622 -0.0642,0.5472 -0.10184,0.80638 -0.02764,0.18708 -0.0491,0.36544 -0.05474,0.52651 -0.0055,0.11475 0.0091,0.25074 0.02546,0.38164 0.03637,0.30444 0.13384,0.58519 0.31905,0.86709 0.10857,0.16767 0.04746,0.17786 0.22699,0.26556 0.15349,0.07329 0.29206,0.12566 0.44235,0.14476 0.19537,0.02528 0.39288,0.05165 0.55195,0.10184 0.21757,0.06856 0.3779,0.11657 0.54846,0.25052 0.23583,0.18518 0.43573,0.31319 0.7754,0.56228 0.0271,0.08547 0.08311,0.15203 0.11093,0.24458 0.09475,0.31483 0.24161,0.70273 0.4071,1.0686 0.2518,0.55604 0.60782,1.1854 0.94203,1.7645 l 0.01273,0.27069 c 1.2685,5.6405 0.36196,10.262 -2.0834,13.779 4.2166,8.6263 10.855,7.8465 16.715,8.1331 5.7473,0.28106 14.454,-4.7524 13.868,-8.184 -1.971,-3.3414 -2.3588,-8.0361 -1.8164,-12.174 0.15276,-1.127 0.2722,-1.5706 0.54424,-2.1459 0.24969,-0.55359 0.41681,-0.86278 0.65164,-1.3494 0.32414,-0.67336 0.49852,-1.3582 0.61065,-1.9337 0.01637,-0.08129 0.03637,-0.18346 0.06965,-0.28644 0.09911,-0.0702 0.2233,-0.1333 0.28271,-0.17149 0.17513,-0.11275 0.43389,-0.26602 0.73788,-0.38164 0.09002,-0.03383 0.18302,-0.06529 0.27989,-0.1273 0.10384,-0.06856 0.18689,-0.18022 0.25442,-0.27988 0.18535,-0.26906 0.30561,-0.57537 0.35622,-0.89055 0.04728,-0.30128 0.09947,-0.5623 0.09002,-0.79264 -8.19e-4,-0.02691 8e-4,-0.04819 0,-0.07638 -0.01273,-0.29822 -0.09675,-0.68112 -0.06474,-1.0432 0.03146,-0.35793 0.10675,-0.71251 0.17822,-0.96687 0.07129,-0.25432 0.1193,-0.32283 0.16676,-0.45291 l -1.8e-5,3.7e-5 v 1.8e-5 h -3.6e-5 7.2e-5 -3.6e-5 z"
     style="color:#000000;fill:#87aade;filter:url(#filter828)"
     id="path6671" />
  <path
     d="m 39.382269,5.0004264 c -1.1158,0.0073 -2.0754,0.11039 -2.8751,0.27988 -2.672,-0.3266996 -6.8837,-0.18776 -10.254,1.7302 0.50003,-0.02801 0.92372,-0.0471 1.3231,-0.05092 -1.5824,0.7375 -3.3929,2.01 -5.3686,4.1472996 0.44715,-0.24532 0.8645,-0.45733 1.2467,-0.6361 -1.5089,1.4251 -2.7286,3.1522 -3.5367,5.216 -0.88605,2.263 -0.59956,12.238 -0.25443,13.969 0.31836,1.5966 0.11057,2.5329 0.07638,2.6716 -0.01273,-0.0073 -0.01273,-0.01946 -0.02546,-0.02546 -0.22785,-0.10948 -0.54004,-0.19897 -0.8142,-0.07638 -0.27202,0.14403 -0.37922,0.44144 -0.43252,0.71242 -0.09693,0.44775 0.01273,0.89564 0.10184,1.2976 0.14221,0.67081 0.32847,1.2983 0.48343,1.8065 0.05656,0.18522 0.1102,0.39666 0.17804,0.61065 0.06747,0.21079 0.11948,0.44442 0.15258,0.68698 0.03328,0.24256 0.05565,0.48312 0.07638,0.73786 0.01873,0.23467 0.03037,0.48008 0.05092,0.71242 0.01455,0.1704 0.03437,0.34314 0.07638,0.50889 0.0451,0.17349 0.11584,0.32059 0.20355,0.45798 0.0073,0.01091 0.01855,0.01455 0.02546,0.02546 0.01818,0.14112 0.13112,0.35362 0.13403,0.66154 0.0018,0.23856 0.07674,0.51252 0.05201,0.78876 -0.02437,0.27622 -0.0642,0.55502 -0.10184,0.8142 -0.02764,0.18708 -0.04546,0.37326 -0.05092,0.53431 -0.0055,0.11475 0.01091,0.2253 0.02546,0.35622 0.03637,0.30444 0.07911,0.58976 0.26431,0.87165 0.10857,0.16767 0.21768,0.24178 0.39708,0.32954 0.15349,0.07329 0.39415,0.1524 0.54444,0.17149 0.19535,0.02528 0.40068,0.05165 0.55973,0.10184 0.21759,0.06856 0.36918,0.15476 0.48344,0.22899 -0.1082,-0.08202 -0.27276,-0.19608 -0.48344,-0.27988 -0.16058,-0.06329 -0.34027,-0.11475 -0.53429,-0.15276 -0.14694,-0.02983 -0.39357,-0.09984 -0.519,-0.17149 -0.14748,-0.0802 -0.22726,-0.14785 -0.32076,-0.30408 -0.1584,-0.26987 -0.18669,-0.51711 -0.21341,-0.79534 -0.01928,-0.1908 -0.01273,-0.3965 0,-0.55975 0.0073,-0.09766 0.01455,-0.19042 0.02546,-0.30532 0.02564,-0.24687 0.0451,-0.53596 0.05092,-0.8142 0.0055,-0.27826 -0.08074,-0.54424 -0.10293,-0.78876 -0.02528,-0.2796 -0.15312,-0.4853 -0.18488,-0.63609 0.07493,0.10911 0.15349,0.21348 0.22899,0.30532 0.2217,0.27102 0.39337,0.4907 0.50887,0.66154 0.11548,0.17076 0.17804,0.27988 0.17804,0.27988 0,0 -0.04546,-0.10348 -0.15276,-0.27988 -0.10711,-0.1764 -0.2726,-0.43011 -0.48343,-0.71242 -0.08511,-0.11439 -0.2002,-0.21999 -0.27988,-0.3562 -0.07965,-0.13621 -0.14439,-0.29524 -0.17804,-0.458 -0.03328,-0.15603 -0.04219,-0.33645 -0.05092,-0.50887 -0.01273,-0.22996 -0.01455,-0.44878 -0.02546,-0.68698 -0.01091,-0.24976 -0.02382,-0.51365 -0.05092,-0.76332 -0.02691,-0.24965 -0.0591,-0.47999 -0.1273,-0.7124 -0.10366,-0.35213 -0.19475,-0.69964 -0.27986,-0.99231 -0.12112,-0.41641 -0.26356,-0.88716 -0.38168,-1.3994 -0.02673,-0.11912 -0.04946,-0.2351 -0.07638,-0.3562 0.07383,0.18853 0.16512,0.282 0.30532,0.43254 0.37435,0.40201 0.6361,0.02546 0.6361,0.02546 0.30524,0.23596 0.82666,0.98244 1.7302,2.9769 -0.06838,-0.13548 -0.18609,-0.18755 -0.30534,-0.25443 -0.21814,-0.12239 -0.6495,0.08511 -0.68696,0.40708 -0.0651,0.55948 0.37875,2.0857 0.43254,1.7811 0.04037,-0.22856 -0.24374,-0.99475 -0.07638,-1.3485 0.08711,-0.18411 0.44025,-0.23287 0.71244,-0.1273 0.07183,0.02801 0.04546,-0.1744 0,-0.30534 -0.0012,-0.0055 0.0012,-0.02164 0,-0.02546 -0.69689,-1.8603 -1.3421,-3.1598 -1.8828,-3.7911 -0.32027,-0.37389 -0.65759,-0.57017 -0.81419,-0.55975 -0.06347,0.0055 -0.10329,0.11311 -0.1273,0.20355 -8e-4,-0.09802 0.0055,-0.1836 0.02546,-0.27988 0.05619,-0.25527 0.14185,-0.52993 0.3562,-0.63609 0.20235,-0.11275 0.46699,-0.05183 0.68698,0.05092 0.94894,0.44282 1.2444,1.0972 1.6793,1.8956 0.21386,0.39263 0.66836,1.6642 0.9287,2.7097 -0.13148,-1.1217 -0.4484,-2.0778 -0.55977,-2.4172 l 1.463,0.02546 c 0.01273,0.29068 0.03619,0.57726 0.10184,0.86509 0.10311,0.45978 0.32505,0.91877 0.687,1.2467 0.48634,0.42929 1.1101,0.60571 1.7047,0.7633 0.96478,0.26162 1.9565,0.37977 2.9515,0.38166 1.3094,0.0036 2.6244,-0.09238 3.9183,-0.30532 0.45917,-0.07547 0.92281,-0.16767 1.374,-0.30534 0.1513,-0.04601 0.30895,-0.08165 0.45798,-0.15276 0.09093,-0.04001 0.19302,-0.10457 0.27989,-0.20355 0.23898,-0.29597 0.349,-0.65563 0.43254,-0.9923 0.10075,-0.39095 0.15585,-0.78198 0.22899,-1.1704 0.05074,-0.27251 0.0411,-0.57426 -0.02546,-0.83964 0.75906,-0.5693 1.6823,-0.63557 2.1373,-0.63609 0.47348,-5.1e-4 1.2663,0.17294 2.01,0.55975 0.0012,0.10966 0.0055,0.22252 0.02546,0.33078 0.0782,0.38742 0.17385,0.78083 0.27988,1.1704 0.08802,0.33552 0.18966,0.69953 0.43254,0.9923 0.0882,0.09784 0.18844,0.16476 0.27989,0.20355 0.15003,0.06911 0.30619,0.10875 0.45798,0.15258 0.45297,0.13166 0.91382,0.21061 1.374,0.27989 1.2966,0.19579 2.6091,0.27482 3.9183,0.25443 0.9948,-0.01455 1.9902,-0.13275 2.9515,-0.4071 0.59249,-0.16549 1.2242,-0.3785 1.7047,-0.8142 0.35756,-0.33276 0.56455,-0.78562 0.66154,-1.2467 0.06238,-0.29146 0.09457,-0.59694 0.10184,-0.89055 l 2.0087,-0.43252 c -0.22918,0.44658 -0.42694,1.132 -0.60932,1.8574 0.26062,-0.70553 0.67703,-1.5628 0.94143,-2.01 0.06601,-0.11184 0.2355,-0.37826 0.40708,-0.53431 0.17222,-0.15585 0.36753,-0.31083 0.58521,-0.458 0.15003,-0.10093 0.31194,-0.19213 0.48343,-0.25443 0.22526,-0.07638 0.48219,-0.16603 0.66154,-0.05092 0.11857,0.06129 0.20557,0.18586 0.25445,0.33078 -0.05165,-0.02492 -0.12439,-0.02673 -0.20357,-0.02546 -0.18609,0.0036 -0.45597,0.08438 -0.7633,0.33078 -0.62682,0.50227 -1.1805,1.6096 -2.0355,4.3254 -0.01273,0.04074 -0.01273,0.08565 -0.02546,0.1273 -0.01091,0.07383 0.0018,0.16949 0.05092,0.15276 0.44638,-0.15658 0.7838,-0.0055 0.83965,0.35622 0.0591,0.38284 -0.41892,1.0606 -0.30532,1.145 0.11657,0.08656 0.27613,-0.27791 0.40708,-0.58521 0.14839,-0.34802 0.26962,-0.65934 0.25445,-0.94143 -0.03619,-0.67101 -0.54588,-1.0142 -0.96685,-0.61063 0.98066,-2.4898 1.4169,-3.0414 1.7302,-3.2568 0,0 0.12694,0.30273 0.58521,0 0.20235,-0.13366 0.41239,-0.29332 0.50887,-0.50887 0.02073,0.34014 -0.04146,0.68023 -0.10184,1.0177 -0.12457,0.68574 -0.30932,1.3164 -0.48344,1.832 -0.05328,0.15767 -0.11366,0.32972 -0.17804,0.50887 -0.08002,0.22332 -0.13075,0.45995 -0.17804,0.71242 -0.04728,0.25249 -0.09329,0.52827 -0.1273,0.78876 -0.03182,0.24161 -0.04456,0.47555 -0.07638,0.71242 -0.02364,0.17385 -0.05801,0.35218 -0.10184,0.50889 -0.04237,0.15985 -0.12493,0.28411 -0.22899,0.40708 -0.10402,0.12293 -0.22305,0.25489 -0.33078,0.35622 -0.13184,0.12257 -0.25343,0.22337 -0.35622,0.33078 -0.10275,0.10748 -0.18884,0.19508 -0.25443,0.27988 0.06783,-0.0782 0.17767,-0.15712 0.27988,-0.25443 0.10711,-0.10202 0.21859,-0.21339 0.35622,-0.33078 0.11239,-0.09529 0.24312,-0.20686 0.35622,-0.33078 0.11311,-0.12384 0.22165,-0.25596 0.27988,-0.43252 0.05256,-0.16385 0.07201,-0.33656 0.10184,-0.50889 0.04092,-0.23559 0.08729,-0.47179 0.1273,-0.71242 0.04237,-0.25347 0.07492,-0.51845 0.1273,-0.7633 0.05237,-0.24487 0.12021,-0.46993 0.20355,-0.68698 0.11984,-0.31352 0.21984,-0.62053 0.30532,-0.89053 0.13712,-0.43314 0.26654,-0.95281 0.35622,-1.5012 0.06747,-0.40585 0.12839,-0.83895 0.05092,-1.2722 -0.04346,-0.26984 -0.13057,-0.57026 -0.38166,-0.71242 -0.09347,-0.04819 -0.20668,-0.07602 -0.30532,-0.07638 -0.1644,-7.64e-4 -0.31461,0.06765 -0.45798,0.1273 -0.18302,0.0742 -0.36086,0.17204 -0.50887,0.27988 -0.12512,0.09111 -0.22146,0.18484 -0.33078,0.27989 l -0.38168,0.05074 c 0.02982,-0.08311 0.05583,-0.18058 0.07638,-0.27989 0.28413,-1.3692 1.0405,-5.9206 1.0177,-8.1929 -0.05183,-5.18 1.1998,-7.3312 -2.5444,-11.857 -0.94132,-1.1378 -2.0528,-2.154 -3.2822,-3.0022996 0.64733,0.16894 1.3337,0.42996 2.0609,0.78874 -1.5993,-1.2922 -2.973,-2.1806 -4.1728,-2.7988 0.57744,0.08911 1.1543,0.1844 1.7556,0.27989 -3.8775,-1.9167 -7.1834,-2.4852996 -9.7195,-2.4681 h 3.6e-5 z m 6.0047,9.4904996 c 1.3537,0.0012 2.461,0.28951 3.1296,1.1704 1.9449,2.5626 2.488,4.4448 2.7225,6.6154 0.2345,2.1706 0.18804,3.7601 0.94141,4.9615 0.70069,1.1174 0.85226,4.4819 0.73786,5.4195 l -1.5012,0.15276 c -0.07402,-0.1293 -0.14603,-0.22888 -0.25443,-0.33078 -0.3295,-0.30754 -0.7463,-0.50261 -1.145,-0.66154 -0.68361,-0.27489 -1.4187,-0.39836 -2.1373,-0.48343 -0.61416,-0.07329 -1.2147,-0.11766 -1.8319,-0.1273 -0.4893,-0.0073 -0.99502,0.02837 -1.4757,0.07638 -0.58376,0.05801 -1.152,0.13184 -1.7302,0.22897 -0.53362,0.08966 -1.0766,0.19068 -1.6029,0.33078 -0.20259,0.05383 -0.41061,0.12875 -0.61065,0.20355 -0.13748,0.05037 -0.27276,0.11057 -0.4071,0.20355 -0.32996,0.23247 -0.56735,0.55848 -0.68698,0.94141 -0.03164,0.10093 -0.06038,0.20013 -0.07638,0.30532 -0.60872,-0.30715 -1.4526,-0.48776 -2.1118,-0.48343 -0.68214,0.0055 -1.6912,0.25514 -2.1627,0.58521 -0.13712,-0.30768 -0.35631,-0.59714 -0.63609,-0.78876 -0.13548,-0.09111 -0.29446,-0.12948 -0.43254,-0.17804 -0.201,-0.0722 -0.40739,-0.12694 -0.61065,-0.17804 -0.52814,-0.13312 -1.0427,-0.24823 -1.5775,-0.33076 -0.57941,-0.08947 -1.1711,-0.15349 -1.7556,-0.20357 -0.4813,-0.04146 -0.96112,-0.06474 -1.4503,-0.05092 -0.61709,0.01819 -1.2442,0.04583 -1.8574,0.1273 -0.71738,0.09456 -1.4319,0.25036 -2.1118,0.53433 -0.39652,0.16422 -0.81959,0.34965 -1.145,0.66154 -0.20764,0.20037 -0.34693,0.45375 -0.40708,0.73786 l -0.89053,-0.05092 c -0.208,-0.583 -0.809,-2.379 -0.661,-3.383 0.14476,-0.98489 0.82704,-0.99337 0.91597,-2.4172 0.08893,-1.42383 -0.2562,-6.6532 0.17804,-8.1165 0.43431,-1.4633 2.3594,-4.4418 4.071,-4.9615 2.9592,-0.89851 5.3754,0.83472 9.694,0.66154 2.8341,-0.11366 6.2954,-1.1738 8.8799,-1.1704 l -3.7e-5,3.7e-5 z m -0.076,16.972 c 0.23821,-0.01455 0.47566,-0.0055 0.71242,0 0.60985,0.0091 1.2275,0.02946 1.832,0.10184 0.70954,0.08547 1.4107,0.22001 2.0609,0.48343 0.38833,0.15876 0.78058,0.33603 1.0686,0.61065 0.22585,0.21374 0.37695,0.51101 0.38164,0.81418 0.0091,0.41581 -0.01637,0.82459 -0.10184,1.2213 -0.09402,0.42563 -0.27475,0.83861 -0.58519,1.1195 -0.4213,0.39277 -0.9925,0.59228 -1.5775,0.76332 -0.93541,0.26767 -1.923,0.36618 -2.9006,0.38166 -1.2974,0.02 -2.5863,-0.03546 -3.8674,-0.22899 -0.45542,-0.06892 -0.91252,-0.15258 -1.3485,-0.27989 -0.14639,-0.04292 -0.30053,-0.09129 -0.43254,-0.15258 -0.08511,-0.04274 -0.16585,-0.07674 -0.20355,-0.1273 -0.20379,-0.23381 -0.28813,-0.55982 -0.38166,-0.89053 -0.01273,-0.04492 -0.01455,-0.10748 -0.02528,-0.15276 0.03164,-0.09002 0.02055,-0.23994 0,-0.43254 0.13548,-0.06911 0.21202,-0.22597 0.17804,-0.38166 -0.03437,-0.15767 -0.17622,-0.27608 -0.33076,-0.27988 -0.03619,-0.1002 -0.06256,-0.18942 -0.10184,-0.25443 1.45e-4,-0.01819 -7.64e-4,-0.03273 0,-0.05092 v -0.07638 c 0.01091,-0.13003 0.03764,-0.2568 0.07638,-0.38166 0.10366,-0.33149 0.32789,-0.61669 0.61065,-0.81419 0.10184,-0.07292 0.22343,-0.1273 0.35622,-0.17804 0.1886,-0.07074 0.38673,-0.12512 0.58521,-0.17804 0.51531,-0.1373 1.0226,-0.24167 1.5521,-0.33076 0.57294,-0.09638 1.1523,-0.17167 1.7302,-0.22901 0.23878,-0.02364 0.47422,-0.0611 0.71242,-0.07638 v -7.2e-5 z m -16.589,0.63609 c 0.11839,-0.0036 0.23747,-0.0012 0.3562,0 0.35624,0.0055 0.71007,0.04583 1.0686,0.07638 0.57852,0.04965 1.156,0.11475 1.7302,0.20355 0.53056,0.08202 1.0604,0.17476 1.5775,0.30532 0.19917,0.05037 0.39568,0.10984 0.58521,0.17804 0.13348,0.04892 0.2534,0.10657 0.35622,0.17804 0.28537,0.19373 0.50256,0.4841 0.61064,0.81419 0.05383,0.16585 0.09748,0.33569 0.10184,0.50889 -0.03819,0.06547 -0.09238,0.15403 -0.1273,0.25443 -0.15621,0.0055 -0.29819,0.12021 -0.33078,0.27989 -0.03146,0.15403 0.0702,0.28759 0.20355,0.3562 -0.01855,0.19468 -0.0073,0.36773 0.02546,0.45798 -0.01091,0.04692 -0.03892,0.08074 -0.05092,0.1273 -0.08911,0.3319 -0.18095,0.67947 -0.38166,0.91597 -0.03692,0.0511 -0.09365,0.08311 -0.17804,0.1273 -0.13112,0.0631 -0.28662,0.10784 -0.43254,0.15276 -0.43429,0.13312 -0.86862,0.20482 -1.3231,0.27989 -1.2784,0.21059 -2.5953,0.3081 -3.8929,0.30532 -0.97767,-0.0018 -1.9363,-0.10093 -2.8752,-0.3562 -0.58725,-0.16331 -1.2019,-0.35074 -1.6284,-0.73788 -0.31417,-0.27675 -0.4855,-0.66974 -0.58521,-1.0941 -0.09147,-0.39554 -0.10584,-0.83084 -0.10184,-1.2467 7.63e-4,-0.30323 0.1333,-0.59747 0.35622,-0.8142 0.28437,-0.27842 0.65699,-0.4468 1.0432,-0.61064 0.64662,-0.27202 1.3526,-0.41381 2.0609,-0.50889 0.60345,-0.08038 1.2223,-0.13512 1.8319,-0.15276 l 3.7e-5,5.5e-5 z"
     style="fill:#87aade;filter:url(#filter832)"
     id="path6685" />
  <path
     d="m 30.822269,53.158426 c 0,0 2.8741,4.5575 7.062,4.6807 4.188,0.12318 8.2938,-4.8038 8.2938,-4.8038 0,0 -3.1615,5.0912 -7.8011,5.0912 -4.6396,0 -7.5547,-4.9681 -7.5547,-4.9681 z"
     style="fill:#3062ad;filter:url(#filter836)"
     id="path3158" />
  <metadata
     id="metadata7">
    <rdf:RDF>
      <cc:Work>
        <dc:format>image/svg+xml</dc:format>
        <dc:type
           rdf:resource="http://purl.org/dc/dcmitype/StillImage" />
        <cc:license
           rdf:resource="http://creativecommons.org/publicdomain/zero/1.0/" />
        <dc:publisher>
          <cc:Agent
             rdf:about="http://openclipart.org/">
            <dc:title>Openclipart</dc:title>
          </cc:Agent>
        </dc:publisher>
        <dc:title></dc:title>
        <dc:date>2012-01-21T03:20:35</dc:date>
        <dc:description>A generic, blue silhouette avatar of a man.</dc:description>
        <dc:source>https://openclipart.org/detail/167281/generic-male-avatar-rectangular-by-kliponius</dc:source>
        <dc:creator>
          <cc:Agent>
            <dc:title>Kliponius</dc:title>
          </cc:Agent>
        </dc:creator>
        <dc:subject>
          <rdf:Bag>
            <rdf:li>avatar</rdf:li>
            <rdf:li>blue</rdf:li>
            <rdf:li>generic</rdf:li>
            <rdf:li>male</rdf:li>
            <rdf:li>silhouette</rdf:li>
          </rdf:Bag>
        </dc:subject>
      </cc:Work>
      <cc:License
         rdf:about="http://creativecommons.org/publicdomain/zero/1.0/">
        <cc:permits
           rdf:resource="http://creativecommons.org/ns#Reproduction" />
        <cc:permits
           rdf:resource="http://creativecommons.org/ns#Distribution" />
        <cc:permits
           rdf:resource="http://creativecommons.org/ns#DerivativeWorks" />
      </cc:License>
    </rdf:RDF>
  </metadata>
  <rect
     y="8.7711868"
     x="0"
     height="20.974575"
     width="77.712944"
     id="rect854"
     style="fill:#ff0000;fill-opacity:0.49803922;stroke:none;stroke-width:0.76287252;stroke-miterlimit:4;stroke-dasharray:none;stroke-dashoffset:0;stroke-opacity:1" />
</svg>
