<svg xmlns="http://www.w3.org/2000/svg" width="500" height="280" viewBox="0 0 500 280"><path d="M289.524 154.647c1.906-6.141 7.406-23.712-51.412-44.037-19.676-6.773-37.234-16.725-37.234-39.8 0-27.522 22.211-44.882 48.657-44.882 14.81 0 31.101 5.501 42.317 10.794v32.604h-1.694c-8.671-32.392-22.425-40.86-40.832-40.86-13.752 0-23.484 8.468-23.696 19.9 0 23.501 42.524 30.699 64.953 51.024 16.503 15.033 12.269 44.038.21 56.313l-1.269-1.056zm-38.082 21.177c-35.759-1.061-49.933-40.019-50.776-48.488h-2.118l1.905 37.475c17.347 8.678 36.602 14.187 52.468 12.918l-1.479-1.905zm-44.732 50.405c-2.235 0-4.416-.723-6.215-1.68l-.873 3.833c1.689.962 4.298 1.653 7 1.653 4.763 0 7.434-2.437 7.434-5.897 0-3.457-2.907-4.73-5.692-5.49-2.179-.607-3.833-1.077-3.833-2.263 0-.989.783-1.546 2.379-1.546 1.805 0 4.071.642 5.867 1.601l.901-3.806c-1.742-.961-3.949-1.597-6.797-1.597-4.499 0-6.967 2.238-6.967 5.602 0 3.639 3.197 4.859 5.836 5.587 2.412.666 3.718 1.075 3.718 2.293 0 1.107-1.133 1.71-2.758 1.71m25.019-10.919v-3.866h-16.173v3.866h5.781v14.292h4.615v-14.292h5.777zm8.619-.29l-2.41 7.12h4.732l-2.322-7.12zm4.675 14.582l-1.338-3.862h-6.735l-1.309 3.862h-4.585l6.446-18.158h5.777l6.329 18.158h-4.585zm19.286-9.032c0-3.751-1.888-5.44-5.662-5.44h-1.921v10.788h2.15c3.341 0 5.433-1.72 5.433-5.348m4.641-.178c0 5.584-3.687 9.21-10.334 9.21h-6.505v-18.158h6.822c6.393-.001 10.017 3.541 10.017 8.948m16.441 9.21v-3.714h-8.742v-3.553h7.027v-3.687h-7.027v-3.484h8.742v-3.721h-13.273v18.158h13.273zm15.908 0v-3.862h-7.289v-14.296h-4.615v18.158h11.904zm-62.222-21.657c0-1.262-.783-1.941-1.992-1.941-1.184 0-1.987.68-1.987 1.941 0 1.259.803 1.945 1.987 1.945 1.209.001 1.992-.686 1.992-1.945m6.315 0c0-1.262-.78-1.941-1.993-1.941-1.177 0-1.987.68-1.987 1.941 0 1.259.81 1.945 1.987 1.945 1.213.001 1.993-.686 1.993-1.945m52.981 45.716h2.349l-.547-17.068h-3.03l-5.207 14.034-5.243-14.034h-3.085l-.573 17.068h2.267l.19-14.225 5.211 13.981h2.319l5.188-13.954.161 14.198zm-18.331-6.582v-10.486h-2.296v10.545c0 3.193-1.636 4.75-4.282 4.75-3.029 0-4.503-1.834-4.503-4.919v-10.376h-2.291v10.73c0 4.099 2.372 6.749 6.655 6.749 4.48 0 6.717-2.674 6.717-6.993m-16.458 6.582v-2.159h-8.488v-5.327h7.067v-2.156h-7.067v-5.267h8.488v-2.159h-10.807v17.068h10.807zm-20.256-1.665c-1.988 0-3.543-.683-4.988-1.641l-.766 2.105c1.637 1.037 3.713 1.611 5.706 1.611 3.575 0 6.002-2.156 6.002-5.108 0-3.224-2.54-4.423-5.024-5.073-2.702-.746-4.149-1.341-4.149-3.06 0-1.428 1.013-2.543 3.468-2.543 1.528 0 3.219.544 4.531 1.422l.82-2.021c-1.639-1.014-3.411-1.503-5.377-1.503-3.383 0-5.704 1.941-5.704 4.805 0 3.302 2.672 4.345 5.105 5 2.783.738 4.09 1.391 4.09 3.136-.001 1.698-1.558 2.87-3.714 2.87m-8.477-4.917v-10.486h-2.292v10.545c0 3.193-1.636 4.75-4.285 4.75-3.031 0-4.503-1.834-4.503-4.919v-10.376h-2.292v10.73c0 4.099 2.374 6.749 6.661 6.749 4.476 0 6.711-2.674 6.711-6.993m-18.999 6.582h2.348l-.543-17.068h-3.032l-5.21 14.034-5.24-14.034h-3.085l-.57 17.068h2.265l.189-14.225 5.21 13.981h2.32l5.184-13.954.164 14.198zm85.447-61.901h-100.861v3.865h100.861v-3.865z"/></svg>