<?xml version="1.0" encoding="UTF-8" standalone="no"?>
<svg
   xmlns:dc="http://purl.org/dc/elements/1.1/"
   xmlns:cc="http://creativecommons.org/ns#"
   xmlns:rdf="http://www.w3.org/1999/02/22-rdf-syntax-ns#"
   xmlns:svg="http://www.w3.org/2000/svg"
   xmlns="http://www.w3.org/2000/svg"
   id="svg1926"
   version="1.1"
   viewBox="0 0 562.17017 187.75288"
   height="187.75288"
   width="562.17017">
  <metadata
     id="metadata1932">
    <rdf:RDF>
      <cc:Work
         rdf:about="">
        <dc:format>image/svg+xml</dc:format>
        <dc:type
           rdf:resource="http://purl.org/dc/dcmitype/StillImage" />
        <dc:title></dc:title>
      </cc:Work>
    </rdf:RDF>
  </metadata>
  <defs
     id="defs1930" />
  <path
     style="stroke-width:3.90598512"
     id="path1924"
     d="m 192.70694,78.998554 c -8.72988,0 -17.24883,-2.82403 -24.27571,-6.56205 l -3.40992,14.97165 c 6.59721,3.75756 16.78792,6.45659 27.3419,6.45659 18.6042,0 29.03709,-9.51888 29.03709,-23.0336 0,-13.503001 -11.3547,-18.47532 -22.23287,-21.443861 -8.51113,-2.370931 -14.97163,-4.206756 -14.97163,-8.839241 0,-3.863032 3.05837,-6.038665 9.29232,-6.038665 7.05031,0 15.90128,2.507649 22.91642,6.253487 l 3.5193,-14.866182 c -6.80423,-3.753653 -15.42473,-6.237859 -26.54898,-6.237859 -17.57304,0 -27.21299,8.741594 -27.21299,21.881338 0,14.213875 12.48742,18.979177 22.79531,21.822733 9.42124,2.6014 14.52246,4.19894 14.52246,8.95643 0,4.32393 -4.42549,6.67923 -10.7727,6.67923 M 290.43077,36.349092 V 21.248559 h -63.1715 v 15.100533 h 22.58052 v 55.824352 h 18.0261 V 36.349092 Z m 33.66569,-1.132729 -9.41342,27.810611 h 18.48312 z m 18.26048,56.957081 -5.2262,-15.08491 h -26.30682 l -5.11293,15.08491 h -17.90895 l 25.17799,-70.924885 h 22.56487 l 24.72098,70.924885 z m 75.33083,-35.278861 c 0,-14.651338 -7.37449,-21.248562 -22.11568,-21.248562 h -7.50341 v 42.137793 h 8.39787 c 13.04989,0 21.22122,-6.7183 21.22122,-20.889231 m 18.12768,-0.695266 c 0,21.811027 -14.40138,35.974127 -40.36446,35.974127 H 370.04257 V 21.248559 h 26.64662 c 24.97096,-0.0039 39.12626,13.831097 39.12626,34.950758 m 64.2183,35.974127 v -14.50683 h -34.14612 v -13.87797 h 27.44736 V 49.387283 H 465.88763 V 35.778825 h 34.14612 V 21.244653 h -51.84413 v 70.924891 h 51.84413 z m 62.13641,0 V 77.088534 H 533.69944 V 21.248559 H 515.67332 V 92.173444 Z M 319.13196,7.581517 C 319.13196,2.652163 316.07357,0 311.35124,0 c -4.6247,0 -7.7612,2.65607 -7.7612,7.581517 0,4.917635 3.1365,7.59714 7.7612,7.59714 4.72233,0.0039 7.78072,-2.679505 7.78072,-7.59714 m 24.6663,0 C 343.79826,2.652163 340.75159,0 336.01362,0 c -4.59734,0 -7.7612,2.65607 -7.7612,7.581517 0,4.917635 3.16386,7.59714 7.7612,7.59714 4.73797,0.0039 7.78464,-2.679505 7.78464,-7.59714 M 550.74125,186.14754 h 9.17515 l -2.13657,-66.66735 h -11.83512 l -20.33848,54.81658 -20.47907,-54.81658 h -12.04997 l -2.23813,66.66735 h 8.85487 l 0.74213,-55.56264 20.3541,54.60957 h 9.05797 l 20.26427,-54.5041 z m -71.60061,-25.70921 v -40.95814 h -8.96815 v 41.18859 c 0,12.47181 -6.3902,18.55344 -16.72543,18.55344 -11.83122,0 -15.30799,-7.38137 -17.58864,-19.21355 v -40.52848 h -8.94862 v 41.9112 c 0,16.01064 9.265,26.3615 25.99434,26.3615 17.49881,0 26.2365,-10.44461 26.2365,-27.31456 m -64.2847,25.70921 v -8.43303 h -33.15401 v -20.80719 h 27.6036 v -8.42128 h -27.6036 V 127.9132 h 33.15401 v -8.43301 h -42.21199 v 66.66735 z m -79.11965,-6.50348 c -7.76509,0 -13.83889,-2.66778 -19.48305,-6.40973 l -2.99198,8.22211 c 6.3941,4.05051 14.50292,6.29254 22.28755,6.29254 13.96391,0 23.44372,-8.4213 23.44372,-19.95178 0,-12.59288 -9.92119,-17.27616 -19.62367,-19.81503 -10.55397,-2.91387 -16.20593,-5.23793 -16.20593,-11.95232 0,-5.57774 3.95676,-9.93292 13.54597,-9.93292 5.96833,0 12.57336,2.12486 17.69801,5.55431 l 3.2029,-7.89401 c -6.4019,-3.96066 -13.32331,-5.87068 -21.00248,-5.87068 -13.21395,0 -22.27974,7.58151 -22.27974,18.76825 0,12.89755 10.43679,16.9715 19.94005,19.52992 10.87035,2.88262 15.97548,5.43322 15.97548,12.24916 -0.004,6.63237 -6.08552,11.21018 -14.50683,11.21018 m -33.11103,-19.20573 v -40.95814 h -8.95251 v 41.18859 c 0,12.47181 -6.3902,18.55344 -16.73714,18.55344 -11.83906,0 -15.308,-7.38137 -17.58867,-19.21355 v -40.52848 h -8.95251 v 41.9112 c 0,16.01064 9.2728,26.3615 26.01777,26.3615 17.48319,0 26.21306,-10.44461 26.21306,-27.31456 m -74.20981,25.70921 h 9.17126 l -2.12096,-66.66735 h -11.84294 l -20.35018,54.81658 -20.46737,-54.81658 h -12.04997 l -2.22641,66.66735 h 8.84706 l 0.73822,-55.56264 20.3502,54.60957 h 9.06188 l 20.24864,-54.5041 z" />
  <path
     id="path1924-3"
     d="m 90.975999,146.49332 c 1.906,-6.141 7.406,-23.712 -51.411999,-44.037 C 19.888,95.683324 2.33,85.731324 2.33,62.656324 c 0,-27.522 22.211,-44.882 48.657,-44.882 14.81,0 31.100999,5.501 42.316999,10.794 v 32.604 h -1.694 c -8.671,-32.392 -22.425,-40.86 -40.831999,-40.86 -13.752,0 -23.484,8.468 -23.696,19.9 0,23.501 42.523999,30.699 64.952999,51.024 16.503001,15.032996 12.269001,44.037996 0.21,56.312996 z M 52.894,167.67032 c -35.759,-1.061 -49.933,-40.019 -50.776,-48.488 H 0 l 1.905,37.475 c 17.347,8.678 36.602,14.187 52.468,12.918 z m 49.857,15.936 H 1.89 v 3.865 h 100.861 z" />
</svg>
